<svg aria-label="Luvy.run" fill="none" role="img" viewBox="0 0 64 64" xmlns="http://www.w3.org/2000/svg">
  <rect fill="#7b55e7" height="64" rx="16" width="64" />
  <path d="M23.2 50.4c-6.6-8.4-10.2-20.7-10.2-32.6 0-7.7 3.3-12.5 8.4-12.5 6.5 0 10.5 9.4 10.5 24.5 0 8.6-3 16.3-8.7 20.6Z" fill="#fff7ef" />
  <path d="M34.3 50.8c-2.1-10.2 1-20 8.6-27.4 5.6-5.4 11.5-7.1 14.7-3.7 4.1 4.3.8 12.3-8.9 21.6-4.8 4.6-9.7 7.8-14.4 9.5Z" fill="#fff7ef" />
  <path d="M21.6 41.8c-3-6.5-4.7-15.1-4.5-23.8.1-5.3 1.6-8.4 4.2-8.4 3.6 0 6.3 8.1 6.3 20 0 5-1.7 9.3-6 12.2Z" fill="#efe8ff" opacity="0.46" />
  <path d="M38.3 42.6c.3-6.3 2.8-11.9 7.5-16.4 3.8-3.6 7-4.8 8.4-3.3 1.9 2-.8 7.5-7.7 14.1-3.1 2.9-5.5 4.6-8.2 5.6Z" fill="#efe8ff" opacity="0.46" />
  <path d="M21.7 48.8c4.6-2.2 9.8-2.3 14.7.2 2.1 1.1 1.9 4.2-.4 5.1-4.8 1.7-9.8 1.7-14.5-.1-2.4-.9-2.1-4.1.2-5.2Z" fill="#fff7ef" />
</svg>
